<svg width="129" height="33" viewBox="0 0 129 33" fill="none" xmlns="http://www.w3.org/2000/svg">
<path d="M45.68 26V8.72H48.992L56.504 20.24V8.72H59.816V26H56.504L48.992 14.48V26H45.68ZM63.4044 11.24V8.36H66.6684V11.24H63.4044ZM63.4044 26V13.04H66.6684V26H63.4044ZM75.8099 32.12C75.0739 32.12 74.3739 32 73.7099 31.76C73.0459 31.528 72.4499 31.2 71.9219 30.776C71.4019 30.36 70.9779 29.872 70.6499 29.312L73.6739 27.848C73.8819 28.232 74.1779 28.524 74.5619 28.724C74.9539 28.924 75.3779 29.024 75.8339 29.024C76.3219 29.024 76.7819 28.94 77.2139 28.772C77.6459 28.612 77.9899 28.368 78.2459 28.04C78.5099 27.72 78.6339 27.32 78.6179 26.84V23.072H79.0259V13.04H81.8819V26.888C81.8819 27.208 81.8659 27.508 81.8339 27.788C81.8099 28.076 81.7619 28.36 81.6899 28.64C81.4819 29.432 81.0939 30.084 80.5259 30.596C79.9659 31.108 79.2779 31.488 78.4619 31.736C77.6459 31.992 76.7619 32.12 75.8099 32.12ZM75.5219 26.36C74.3299 26.36 73.2859 26.06 72.3899 25.46C71.4939 24.86 70.7939 24.044 70.2899 23.012C69.7939 21.98 69.5459 20.816 69.5459 19.52C69.5459 18.2 69.7979 17.028 70.3019 16.004C70.8139 14.972 71.5299 14.16 72.4499 13.568C73.3699 12.976 74.4499 12.68 75.6899 12.68C76.9219 12.68 77.9579 12.98 78.7979 13.58C79.6379 14.18 80.2739 14.996 80.7059 16.028C81.1379 17.06 81.3539 18.224 81.3539 19.52C81.3539 20.816 81.1339 21.98 80.6939 23.012C80.2619 24.044 79.6139 24.86 78.7499 25.46C77.8859 26.06 76.8099 26.36 75.5219 26.36ZM76.0499 23.456C76.7779 23.456 77.3579 23.292 77.7899 22.964C78.2299 22.636 78.5459 22.176 78.7379 21.584C78.9299 20.992 79.0259 20.304 79.0259 19.52C79.0259 18.736 78.9299 18.048 78.7379 17.456C78.5459 16.864 78.2379 16.404 77.8139 16.076C77.3979 15.748 76.8499 15.584 76.1699 15.584C75.4419 15.584 74.8419 15.764 74.3699 16.124C73.9059 16.476 73.5619 16.952 73.3379 17.552C73.1139 18.144 73.0019 18.8 73.0019 19.52C73.0019 20.248 73.1099 20.912 73.3259 21.512C73.5419 22.104 73.8739 22.576 74.3219 22.928C74.7699 23.28 75.3459 23.456 76.0499 23.456ZM91.0745 26.36C89.7705 26.36 88.6265 26.068 87.6425 25.484C86.6585 24.9 85.8905 24.096 85.3385 23.072C84.7945 22.04 84.5225 20.856 84.5225 19.52C84.5225 18.168 84.8025 16.98 85.3625 15.956C85.9225 14.924 86.6945 14.12 87.6785 13.544C88.6625 12.968 89.7945 12.68 91.0745 12.68C92.3785 12.68 93.5225 12.972 94.5065 13.556C95.4985 14.14 96.2705 14.948 96.8225 15.98C97.3745 17.004 97.6505 18.184 97.6505 19.52C97.6505 20.864 97.3705 22.052 96.8105 23.084C96.2585 24.108 95.4865 24.912 94.4945 25.496C93.5105 26.072 92.3705 26.36 91.0745 26.36ZM91.0745 23.312C92.1225 23.312 92.9025 22.96 93.4145 22.256C93.9345 21.544 94.1945 20.632 94.1945 19.52C94.1945 18.368 93.9305 17.448 93.4025 16.76C92.8825 16.072 92.1065 15.728 91.0745 15.728C90.3625 15.728 89.7785 15.888 89.3225 16.208C88.8665 16.528 88.5265 16.972 88.3025 17.54C88.0865 18.108 87.9785 18.768 87.9785 19.52C87.9785 20.68 88.2385 21.604 88.7585 22.292C89.2865 22.972 90.0585 23.312 91.0745 23.312ZM105.545 26.36C104.353 26.36 103.309 26.06 102.413 25.46C101.517 24.86 100.817 24.044 100.313 23.012C99.8174 21.98 99.5694 20.816 99.5694 19.52C99.5694 18.2 99.8214 17.028 100.325 16.004C100.837 14.972 101.553 14.16 102.473 13.568C103.393 12.976 104.473 12.68 105.713 12.68C106.945 12.68 107.981 12.98 108.821 13.58C109.661 14.18 110.297 14.996 110.729 16.028C111.161 17.06 111.377 18.224 111.377 19.52C111.377 20.816 111.157 21.98 110.717 23.012C110.285 24.044 109.637 24.86 108.773 25.46C107.909 26.06 106.833 26.36 105.545 26.36ZM106.073 23.456C106.801 23.456 107.381 23.292 107.813 22.964C108.253 22.636 108.569 22.176 108.761 21.584C108.953 20.992 109.049 20.304 109.049 19.52C109.049 18.736 108.953 18.048 108.761 17.456C108.569 16.864 108.261 16.404 107.837 16.076C107.421 15.748 106.873 15.584 106.193 15.584C105.465 15.584 104.865 15.764 104.393 16.124C103.929 16.476 103.585 16.952 103.361 17.552C103.137 18.144 103.025 18.8 103.025 19.52C103.025 20.248 103.133 20.912 103.349 21.512C103.565 22.104 103.897 22.576 104.345 22.928C104.793 23.28 105.369 23.456 106.073 23.456ZM109.049 26V17.12H108.641V8.72H111.929V26H109.049ZM121.121 26.36C119.817 26.36 118.673 26.068 117.689 25.484C116.705 24.9 115.937 24.096 115.385 23.072C114.841 22.04 114.569 20.856 114.569 19.52C114.569 18.168 114.849 16.98 115.409 15.956C115.969 14.924 116.741 14.12 117.725 13.544C118.709 12.968 119.841 12.68 121.121 12.68C122.425 12.68 123.569 12.972 124.553 13.556C125.545 14.14 126.317 14.948 126.869 15.98C127.421 17.004 127.697 18.184 127.697 19.52C127.697 20.864 127.417 22.052 126.857 23.084C126.305 24.108 125.533 24.912 124.541 25.496C123.557 26.072 122.417 26.36 121.121 26.36ZM121.121 23.312C122.169 23.312 122.949 22.96 123.461 22.256C123.981 21.544 124.241 20.632 124.241 19.52C124.241 18.368 123.977 17.448 123.449 16.76C122.929 16.072 122.153 15.728 121.121 15.728C120.409 15.728 119.825 15.888 119.369 16.208C118.913 16.528 118.573 16.972 118.349 17.54C118.133 18.108 118.025 18.768 118.025 19.52C118.025 20.68 118.285 21.604 118.805 22.292C119.333 22.972 120.105 23.312 121.121 23.312Z" fill="#171952"/>
<path d="M11 0V10L21.3808 0H21.9448C27.4465 0 32 4.54697 32 10.0415V32H21V15.5309C21 12.8098 19.1714 11 16.4463 11H11V32H0V0H11Z" fill="#606AE0"/>
</svg>
